<svg width="694" height="694" viewBox="0 0 694 694" fill="none" xmlns="http://www.w3.org/2000/svg">
<path d="M462.66 70.8184V117.605H184.553C145.446 117.605 113.735 149.316 113.735 188.423V462.68H70.8184C31.7112 462.68 0 430.969 0 391.862V70.8184C0 31.7112 31.7112 0 70.8184 0H391.841C430.969 0 462.66 31.7112 462.66 70.8184Z" fill="#FDCC2B"/>
<path d="M694 302.158V623.181C694 662.288 662.289 694 623.182 694H302.158C263.051 694 231.34 662.288 231.34 623.181V580.265H505.597C544.704 580.265 576.415 548.554 576.415 509.446V231.34H623.202C662.289 231.34 694 263.031 694 302.158Z" fill="#FDCC2B"/>
<path d="M113.735 462.66H231.319V580.245H184.533C145.426 580.245 113.714 548.533 113.714 509.426V462.66H113.735Z" fill="#FDCC2B"/>
<path d="M302.158 231.34H462.68V391.862C462.68 430.969 430.969 462.68 391.862 462.68H231.34V302.158C231.34 263.031 263.031 231.34 302.158 231.34Z" fill="#FDCC2B"/>
<path d="M576.415 188.403V231.32H462.68V117.585H505.596C544.703 117.585 576.415 149.296 576.415 188.403Z" fill="#FDCC2B"/>
</svg>
