<svg width="585" height="106" viewBox="0 0 585 106" fill="none" xmlns="http://www.w3.org/2000/svg">
<rect x="19.5186" y="3.02832" width="12.8265" height="78.7429" fill="#D34E57"/>
<rect y="27.2568" width="12.8265" height="78.7429" fill="#37ECF5"/>
<path d="M91.2856 75H76.5884L70.4019 50.4248L65.2407 75H51.8765L62.438 25.0293H75.8022L70.8462 48.4082L86.5347 25.0293H101.437L83.6636 49.8096L91.2856 75ZM107.274 25.0293H119.442L114.964 45.9473C114.372 48.8867 113.346 52.9427 111.888 58.1152H112.161L134.857 25.0293H151.57L141.009 75H128.841L133.182 54.2871C133.911 50.5501 134.959 46.1865 136.326 41.1963H136.053L113.426 75H96.712L107.274 25.0293ZM192.031 25.0293L189.741 35.9326H173.574L172.002 43.5547H172.993C178.37 43.5547 182.552 44.8307 185.537 47.3828C188.522 49.9121 190.014 53.3757 190.014 57.7734C190.014 63.151 188.237 67.3665 184.682 70.4199C181.15 73.4733 176.137 75 169.643 75H152.007L162.5 25.0293H192.031ZM167.695 64.5752H170.327C172.332 64.5752 173.87 64.0397 174.941 62.9688C176.035 61.875 176.582 60.3825 176.582 58.4912C176.582 57.1468 176.16 56.0645 175.317 55.2441C174.497 54.4238 173.426 54.0137 172.104 54.0137H169.78L167.695 64.5752ZM223.981 75H194.313L204.874 25.0293H234.542L232.321 35.8643H216.017L214.41 43.7256H229.586L227.125 54.5605H211.95L210.001 63.9941H226.305L223.981 75ZM274.969 40C274.969 45.7422 273.009 50.2539 269.09 53.5352C265.193 56.7936 259.85 58.4229 253.059 58.4229H250.12L246.702 75H233.338L243.899 25.0293H256.648C262.55 25.0293 267.073 26.3281 270.218 28.9258C273.385 31.5007 274.969 35.1921 274.969 40ZM252.513 47.4854H254.666C256.739 47.4854 258.414 46.8245 259.69 45.5029C260.966 44.1585 261.604 42.4609 261.604 40.4102C261.604 39.0658 261.194 37.9834 260.374 37.1631C259.554 36.3428 258.426 35.9326 256.99 35.9326H254.974L252.513 47.4854Z" fill="#D34E57"/>
<path d="M309.208 90.6201L312.558 75H284.497L281.147 90.6201H268.125L273.662 63.9258H279.746C283.186 58.6165 286.445 52.4984 289.521 45.5713C292.62 38.6442 295.126 31.7969 297.041 25.0293H327.768L319.497 63.9258H327.905L322.231 90.6201H309.208ZM312.148 36.0693H306.337C303.261 45.9587 299.296 55.2441 294.443 63.9258H306.132L312.148 36.0693ZM361.358 24.2432C367.283 24.2432 371.886 25.9408 375.167 29.3359C378.471 32.7083 380.123 37.4251 380.123 43.4863C380.123 49.5475 378.984 55.096 376.705 60.1318C374.449 65.1449 371.328 68.9958 367.34 71.6846C363.352 74.3506 358.727 75.6836 353.463 75.6836C347.333 75.6836 342.594 73.986 339.244 70.5908C335.917 67.1956 334.254 62.4788 334.254 56.4404C334.254 50.402 335.428 44.8535 337.775 39.7949C340.122 34.7363 343.312 30.8854 347.345 28.2422C351.401 25.5762 356.072 24.2432 361.358 24.2432ZM366.622 43.623C366.622 41.0254 366.075 38.9974 364.982 37.5391C363.888 36.0579 362.304 35.3174 360.231 35.3174C357.975 35.3174 355.901 36.2744 354.01 38.1885C352.119 40.1025 350.603 42.7344 349.464 46.084C348.347 49.4336 347.789 52.863 347.789 56.3721C347.789 61.8864 350.068 64.6436 354.625 64.6436C356.79 64.6436 358.795 63.6979 360.641 61.8066C362.509 59.9154 363.968 57.3633 365.016 54.1504C366.087 50.9375 366.622 47.4284 366.622 43.623ZM421.712 75H408.347L412.62 54.6289H400.794L396.453 75H383.089L393.65 25.0293H407.014L403.186 43.5547H415.081L418.909 25.0293H432.307L421.712 75ZM460.908 65.6348H445.595L441.323 75H427.446L452.875 25.0293H470.068L474.272 75H461.249L460.908 65.6348ZM450.483 54.9707H460.497L459.916 40.4785L459.848 37.5391C459.848 35.8301 459.894 34.3376 459.985 33.0615C459.438 35.0212 458.743 36.9124 457.9 38.7354L450.483 54.9707ZM499.967 75H486.602L494.703 36.0693H483.868L486.226 25.0293H521.363L518.936 36.0693H508.067L499.967 75ZM555.945 57.7734C555.945 63.151 554.167 67.3665 550.613 70.4199C547.081 73.4733 542.068 75 535.574 75H517.937L528.43 25.0293H541.794L537.932 43.5547H538.923C544.301 43.5547 548.482 44.8307 551.467 47.3828C554.452 49.9121 555.945 53.3757 555.945 57.7734ZM533.625 64.5752H536.257C538.263 64.5752 539.801 64.0397 540.872 62.9688C541.965 61.875 542.512 60.3825 542.512 58.4912C542.512 57.1468 542.091 56.0645 541.248 55.2441C540.427 54.4238 539.356 54.0137 538.035 54.0137H535.71L533.625 64.5752ZM559.226 75L569.788 25.0293H583.186L572.59 75H559.226Z" fill="#37ECF5"/>
</svg>
